<svg xmlns="http://www.w3.org/2000/svg" width="1200" height="600" viewBox="0 0 1200 600" role="img" aria-label="mind-map screenshot placeholder">
  <rect width="1200" height="600" fill="#0f1117"/>
  <g fill="none" stroke="#2a2f3a" stroke-width="2">
    <path d="M600 300 H360 V180"/>
    <path d="M600 300 H360 V420"/>
    <path d="M600 300 H840 V200"/>
    <path d="M600 300 H840 V300"/>
    <path d="M600 300 H840 V400"/>
  </g>
  <g font-family="ui-monospace, SFMono-Regular, Menlo, monospace">
    <rect x="500" y="276" width="200" height="48" rx="10" fill="#1d2230" stroke="#3b82f6" stroke-width="2"/>
    <text x="600" y="306" fill="#e5e7eb" font-size="20" text-anchor="middle">mind-map</text>
    <g fill="#161b26" stroke="#2a2f3a" stroke-width="1.5">
      <rect x="270" y="158" width="160" height="40" rx="8"/>
      <rect x="270" y="398" width="160" height="40" rx="8"/>
      <rect x="780" y="180" width="160" height="40" rx="8"/>
      <rect x="780" y="280" width="160" height="40" rx="8"/>
      <rect x="780" y="380" width="160" height="40" rx="8"/>
    </g>
    <g fill="#9aa4b2" font-size="15" text-anchor="middle">
      <text x="350" y="183">ideas</text>
      <text x="350" y="423">structure</text>
      <text x="860" y="205">keyboard</text>
      <text x="860" y="305">hjkl nav</text>
      <text x="860" y="405">your data</text>
    </g>
  </g>
  <text x="600" y="540" fill="#6b7280" font-size="22" font-family="ui-sans-serif, system-ui, sans-serif" text-anchor="middle">Replace docs/screenshot.svg with a real screenshot or GIF</text>
</svg>
